<?xml version="1.0" encoding="utf-8"?>
<!-- Generator: Adobe Illustrator 17.0.0, SVG Export Plug-In . SVG Version: 6.00 Build 0)  -->
<!DOCTYPE svg PUBLIC "-//W3C//DTD SVG 1.1//EN" "http://www.w3.org/Graphics/SVG/1.1/DTD/svg11.dtd">
<svg version="1.1" id="Layer_1" xmlns="http://www.w3.org/2000/svg" xmlns:xlink="http://www.w3.org/1999/xlink" x="0px" y="0px"
	 width="120px" height="48px" viewBox="0 0 120 48" enable-background="new 0 0 120 48" xml:space="preserve">
<g>
	<polygon fill="#FFFFFF" points="2,9.6 2,24 9,24 9,17 15,17 15,24 22,24 22,9.6 12,0.7 	"/>
</g>
<g>
	<polygon fill="#0082CC" points="2,33.6 2,48 9,48 9,41 15,41 15,48 22,48 22,33.6 12,24.7 	"/>
</g>
<circle fill="#0082CC" cx="36" cy="36.35" r="9.25"/>
<circle fill="#0082CC" cx="58.75" cy="36.35" r="9.25"/>
<circle fill="#0082CC" cx="83.167" cy="36.35" r="9.25"/>
<circle fill="#0082CC" cx="105.917" cy="36.35" r="9.25"/>
<circle fill="#FFFFFF" cx="36" cy="14.35" r="9.25"/>
<circle fill="#FFFFFF" cx="58.75" cy="14.35" r="9.25"/>
<circle fill="#FFFFFF" cx="83.167" cy="14.35" r="9.25"/>
<circle fill="#FFFFFF" cx="105.917" cy="14.35" r="9.25"/>
</svg>
